<svg xmlns="http://www.w3.org/2000/svg" width="2500" height="1715" xmlns:xlink="http://www.w3.org/1999/xlink" viewBox="0 0 1949.9 1338">
  <style>
    .st0{fill:#3c3c3b}.st1{opacity:.6}.st2{clip-path:url(#SVGID_2_);fill:#010101}.st3{opacity:.45}.st4{clip-path:url(#SVGID_4_);fill:#010101}.st5{opacity:.8}.st6,.st7,.st8{clip-path:url(#SVGID_6_);fill:#010101}.st7,.st8{clip-path:url(#SVGID_8_)}.st8{clip-path:url(#SVGID_10_)}
  </style>
  <path d="M176 1242c0 4.2-3.7 7.7-8 7.7H15.8c3.8 37.6 32 72 72 72 27 0 47.3-10.5 62.5-32.2 2.2-3 5.5-5 9.7-3 2.3 1 4 3 4.3 5.4.4 2.4-.3 3.8-1 5.2-15.3 26.7-45.8 39.8-75.7 39.8-51.2 0-87.7-45.8-87.7-94.8s36.4-94.8 87.6-94.8c51.2 0 88.2 45.6 88.3 94.5m-16.4-7.5c-3.3-37.6-32-72-72-72s-68 34.4-71.8 72h143.8zm201-83.4c4.4 0 7.6 4 7.6 7.7 0 4.4-3.3 7.6-7.6 7.6h-40.8v160c0 4-3.3 7.7-7.6 7.7-4.4 0-7.6-3.8-7.6-7.6v-160h-39.2c-4.4 0-7.6-3.4-7.6-7.7 0-3.8 3.3-7.6 7.6-7.6h39.2v-58.5c0-3.7 2.5-7 6-7.7 5.2-.8 9.2 2.7 9.2 7.5v58.8h40.8zm249 77.5v97c0 4.4-4 7.6-7.7 7.6-4.5 0-7.7-3.2-7.7-7.5v-97c0-32.7-18.5-65.4-55-65.4-46.8 0-67 41-64.3 83l.5 6.4v72.8c0 3.7-2.5 7-6 7.7-5.2.7-9.2-2.8-9.2-7.6v-318.6c0-3.8 3.3-7.6 7.6-7.6s7.5 3.8 7.5 7.6V1187c13-23.3 36.5-39 63.7-39 44.7 0 70.3 39 70.3 80.5m273 13.4c0 4.2-3.7 7.7-8 7.7H722.2c3.8 37.6 32 72 72 72 27 0 47.3-10.5 62.5-32.2 2.2-3 5.5-5 9.7-3 2.3 1 4 3 4.3 5.4.4 2.4-.3 3.8-1 5.2C854.4 1324 824 1337 794 1337c-51.2 0-87.7-45.8-87.7-94.8s36.5-94.8 87.7-94.8c51.3 0 88.3 45.6 88.4 94.5m-16.4-7.5c-3.3-37.6-32-72-72-72s-68 34.4-71.8 72H866zm203.2-76.3c0 5-2.7 7.6-7 8.2-44.8 6.5-65 43-65 85.5v72.7c0 3.7-2.4 7-6 7.7-5 .8-9-2.7-9-7.5v-166c0-3.7 2.4-7 6-7.7 5-.8 9 2.7 9 7.5v33.8c12.6-21.2 37.7-41.4 63.8-41.4 3.8 0 8.2 2.7 8.2 7m250 83.7c0 4.2-3.6 7.7-8 7.7h-152c3.7 37.6 32 72 71.8 72 27.2 0 47.4-10.5 62.6-32.2 2.2-3 5.5-5 9.7-3 2.3 1 4 3 4.3 5.4.4 2.4-.3 3.8-1 5.2-15.3 26.7-45.8 39.8-75.7 39.8-51.3 0-87.8-45.8-87.8-94.8s36.5-94.8 87.7-94.8c51 0 88 45.6 88.2 94.5m-16.3-7.5c-3.4-37.6-32.2-72-72-72s-68 34.4-72 72h144zm262-74.4v166.4c0 4.4-4 7.6-7.7 7.6-4.4 0-7.6-3.3-7.6-7.6v-31.6c-12.5 25-35 43-63.2 43-45.2 0-70.3-39.2-70.3-80.6v-97.5c0-3.8 3.3-7.6 7.6-7.6 4.4 0 7.6 4 7.6 7.7v97.5c0 32.7 18.5 65.4 55 65.4 51.2 0 63.2-48 63.2-100.8v-62c0-4.5 4.4-9 9.8-7.4 3.3 1 5.5 4.3 5.5 7.7m385 68v97.4c0 4.4-4 7.6-7.7 7.6-4.4 0-7.6-3.3-7.6-7.6V1228c0-32.8-18.5-65-55-65-45.8 0-63.2 49-63.2 87.2v75.2c0 4.4-3.8 7.6-7.6 7.6-4.5 0-7.7-3.3-7.7-7.6V1228c0-32.8-18.5-65-55-65-46.3 0-65.4 36.6-63.7 85 0 1.2.5 3.4 0 4v73.2c0 3.7-2.5 7-6.2 7.7-5 .7-9-2.8-9-7.6V1159c0-3.7 2.4-7 6-7.7 5-.8 9 2.7 9 7.5v27.8c13.2-23.4 36.6-38.7 63.8-38.7 31 0 55 19.5 64.8 48.4 12.5-28.3 37-48.5 68.6-48.5 44.7 0 70.3 38.5 70.3 80" class="st0"/>
  <g class="st1">
    <defs>
      <path id="SVGID_1_" d="M720.6 306.4h508.7v266H720.6z"/>
    </defs>
    <clipPath id="SVGID_2_">
      <use xlink:href="#SVGID_1_" overflow="visible"/>
    </clipPath>
    <path d="M975 306.4L720.6 422 975 572.5 1229.3 422z" class="st2"/>
  </g>
  <g class="st3">
    <defs>
      <path id="SVGID_3_" d="M720.6 0H975v572.4H720.6z"/>
    </defs>
    <clipPath id="SVGID_4_">
      <use xlink:href="#SVGID_3_" overflow="visible"/>
    </clipPath>
    <path d="M720.6 422L975 572.5V0z" class="st4"/>
  </g>
  <g class="st5">
    <defs>
      <path id="SVGID_5_" d="M975 0h254.4v572.4H975z"/>
    </defs>
    <clipPath id="SVGID_6_">
      <use xlink:href="#SVGID_5_" overflow="visible"/>
    </clipPath>
    <path d="M975 0v572.4L1229.3 422z" class="st6"/>
  </g>
  <g class="st3">
    <defs>
      <path id="SVGID_7_" d="M720.6 470.3H975v358.4H720.6z"/>
    </defs>
    <clipPath id="SVGID_8_">
      <use xlink:href="#SVGID_7_" overflow="visible"/>
    </clipPath>
    <path d="M720.6 470.3L975 828.7v-208z" class="st7"/>
  </g>
  <g class="st5">
    <defs>
      <path id="SVGID_9_" d="M975 470.3h254.5v358.4H975z"/>
    </defs>
    <clipPath id="SVGID_10_">
      <use xlink:href="#SVGID_9_" overflow="visible"/>
    </clipPath>
    <path d="M975 620.6v208l254.5-358.3z" class="st8"/>
  </g>
</svg>