<svg xmlns="http://www.w3.org/2000/svg" viewBox="0 0 72 72">
  <path d="M66.68 0H5.32A5.24 5.24 0 0 0 0 5.16v61.68A5.24 5.24 0 0 0 5.32 72h61.36A5.24 5.24 0 0 0 72 66.84V5.16A5.24 5.24 0 0 0 66.68 0zM21.83 60.27H11v-32.5h10.83zM16.4 23.32h-.08c-3.65 0-6-2.5-6-5.62s2.44-5.6 6.16-5.6 6 2.42 6.08 5.6-2.36 5.62-6.15 5.62zM61 60.27H50.17v-17.4c0-4.37-1.58-7.35-5.5-7.35a6 6 0 0 0-5.6 4 7.25 7.25 0 0 0-.35 2.63v18.12H27.84s.15-29.46 0-32.5h10.88v4.6a10.8 10.8 0 0 1 9.8-5.37C55.68 27 61 31.64 61 41.63zm-22.35-27.8l.07-.1v.1zm0 0"/>
</svg>