<svg viewBox="0 0 253.71 329.39">
  <title>BP Prime</title>
  <path d="M234,314.2H223.7v-4.8h12.24v-5.26H217.6v25.24h18.34v-5.26H223.7V319H234Zm-34.61,15.19h6.06l0-25.24h-4.92L192.62,315l-7.82-10.81h-4.92l0,25.24h6.06v-14l5.47,7.28h2.57l5.43-7.24Zm-31.94-25.24h-6.1v25.24h6.1Zm-24,8.5c0,2.15-1.64,3.28-3.79,3.28H135v-6.52h4.63c2.23,0,3.83,1.05,3.83,3.24m-14.55-8.5v25.24H135V321.1h3.53l5.26,8.29h6.94V329l-5.68-8.37v-.46a7.92,7.92,0,0,0,4.71-7.49c0-4.92-4-8.5-9.72-8.5Zm-16.6,8.5c0,2.15-1.64,3.28-3.79,3.28h-4.67v-6.52h4.63c2.23,0,3.83,1.05,3.83,3.24m-3.41-8.5H97.75v25.24h6.1V321.1h5c5.8,0,9.72-3.28,9.72-8.46,0-4.92-4-8.5-9.72-8.5m-44,8.5c0,2.15-1.64,3.28-3.79,3.28H56.49v-6.52h4.63c2.23,0,3.83,1.05,3.83,3.24m-3.41-8.5H50.39v25.24h6.1V321.1h5c5.8,0,9.72-3.28,9.72-8.46,0-4.92-4-8.5-9.72-8.5m-29.67,7.78a2.48,2.48,0,0,1-2.61,2.44H23.87v-5h5.51a2.42,2.42,0,0,1,2.48,2.52m-1.89,7a2.68,2.68,0,0,1,2.48,2.65,2.62,2.62,0,0,1-2.73,2.57H23.87v-5.22Zm9,2.94a5.32,5.32,0,0,0-3.66-5.38v-.34a6,6,0,0,0,3-5.09c0-4.29-2.86-6.9-8.83-6.9H17.77v25.24h11.9c6,0,9.34-2.82,9.34-7.53" style="fill: #8e7d47"/>
  <path d="M162.82,90.89a50.86,50.86,0,1,1-71.93,0,50.86,50.86,0,0,1,71.93,0m90.89,36L126.86,0,0,126.86,126.86,253.71Z" style="fill: #8e7d47"/>
</svg>
