<?xml version="1.0" ?><!DOCTYPE svg  PUBLIC '-//W3C//DTD SVG 1.1//EN'  'http://www.w3.org/Graphics/SVG/1.1/DTD/svg11.dtd'><svg enable-background="new 0 0 512 512" height="512px" id="Layer_1" version="1.1" viewBox="0 0 512 512" width="512px" xml:space="preserve" xmlns="http://www.w3.org/2000/svg" xmlns:xlink="http://www.w3.org/1999/xlink"><path d="M511.584,97.355c-18.811,8.367-39.021,14.024-60.231,16.568c21.654-13.021,38.283-33.647,46.112-58.229  c-20.266,12.063-42.709,20.827-66.598,25.536C411.738,60.783,384.484,48,354.322,48c-57.917,0-104.878,47.126-104.878,105.255  c0,8.243,0.93,16.287,2.718,23.99c-87.16-4.393-164.437-46.302-216.159-109.981c-9.028,15.542-14.2,33.621-14.2,52.917  c0,36.518,18.514,68.735,46.656,87.608c-17.192-0.545-33.364-5.278-47.5-13.163c-0.013,0.44-0.013,0.877-0.013,1.318  c0,51.002,36.151,93.542,84.127,103.215c-8.8,2.399-18.064,3.688-27.629,3.688c-6.757,0-13.327-0.652-19.731-1.887  c13.344,41.811,52.074,72.25,97.965,73.098c-35.89,28.229-81.11,45.059-130.246,45.059c-8.466,0-16.812-0.5-25.016-1.475  c46.41,29.869,101.535,47.295,160.759,47.295c192.897,0,298.385-160.388,298.385-299.481c0-4.563-0.104-9.1-0.307-13.616  C479.744,137.002,497.521,118.46,511.584,97.355z" fill="#2c2a28"/></svg>