<?xml version="1.0" standalone="no"?>
<!DOCTYPE svg PUBLIC "-//W3C//DTD SVG 20010904//EN"
 "http://www.w3.org/TR/2001/REC-SVG-20010904/DTD/svg10.dtd">
<svg version="1.0" xmlns="http://www.w3.org/2000/svg"
 width="700.000000pt" height="700.000000pt" viewBox="0 0 700.000000 700.000000"
 preserveAspectRatio="xMidYMid meet">
<metadata>
Created by potrace 1.11, written by Peter Selinger 2001-2013
</metadata>
<g transform="translate(0.000000,700.000000) scale(0.100000,-0.100000)"
fill="#000000" stroke="none">
<path d="M1931 5066 l-1564 -1564 1567 -1568 1568 -1567 1565 1567 1566 1568
-1565 1564 c-861 860 -1568 1564 -1569 1564 -2 0 -708 -704 -1568 -1564z
m1758 -326 c31 -5 65 -11 76 -14 11 -2 42 -9 69 -15 27 -7 57 -16 68 -22 11
-6 28 -12 38 -14 10 -2 64 -26 119 -53 383 -191 648 -575 689 -996 21 -225
-18 -457 -111 -656 -29 -63 -103 -190 -116 -200 -3 -3 -19 -23 -35 -45 -16
-22 -67 -77 -114 -123 -339 -331 -831 -442 -1277 -290 -116 40 -197 83 -345
181 -93 62 -250 237 -328 366 -53 86 -119 244 -138 331 -4 19 -9 42 -11 50
-33 136 -34 375 -3 518 65 293 233 557 470 740 114 87 300 182 406 207 10 2
37 9 59 15 140 36 344 44 484 20z"/>
</g>
</svg>
